<svg><defs><symbol id="planet_1"><circle fill="#FFB0BB" stroke="#FFB093" stroke-width="5" stroke-miterlimit="10" cx="15" cy="15" r="10"/></symbol><symbol id="planet_2"><path fill="#9D8FFF" d="M11.21,10.463c-4.832-0.403-8.209,0.403-9.731,2.015L4.32,13.63c1.311-1.327,4.145-1.985,8.174-1.649c7.936,0.661,17.539,4.922,21.407,9.497c1.559,1.845,1.95,3.461,1.345,4.692l2.844,1.153c0.771-1.465,0.324-3.405-1.549-5.623l-0.004-0.004C31.961,16.284,20.598,11.244,11.21,10.463z"/><circle fill="#C4B8FF" stroke="#9D8FFF" stroke-width="3" stroke-miterlimit="10" cx="19.761" cy="20" r="12.035"/><path fill="#9D8FFF" d="M27.788,30.095l0.037,0.003c5.529,0.457,9.157-0.666,10.265-2.774l-2.844-1.153c-0.896,1.826-3.984,2.803-8.723,2.408c-7.937-0.66-17.542-4.921-21.41-9.496C3.21,16.83,3.049,14.915,4.32,13.63l-2.841-1.152c-1.434,1.52-1.22,3.757,1,6.383l0.003,0.003C7.056,24.273,18.403,29.309,27.788,30.095z"/></symbol><symbol id="planet_3"><circle fill="#B3DFFF" stroke="#94D6FF" stroke-width="5" stroke-miterlimit="10" cx="10" cy="10" r="5"/></symbol><symbol id="sun"><g><path fill="#CCC662" d="M27.284,23.447C25.305,25.356,25.935,27,28.685,27h42.63c2.75,0,3.453-1.716,1.563-3.714L54.636,3.969c-1.89-1.998-5.056-2.049-7.035-0.14L27.284,23.447z"/></g><g><path fill="#CCC662" d="M72.717,77.438C74.696,75.529,74.065,74,71.315,74h-42.63c-2.75,0-3.454,1.601-1.563,3.599l18.242,19.26c1.891,1.998,5.057,2.077,7.036,0.169L72.717,77.438z"/></g><g><path fill="#CCC662" d="M77.246,27.668C75.337,25.689,74,26.32,74,29.07V71.7c0,2.75,1.408,3.453,3.406,1.563L96.57,55.021c1.998-1.89,2.125-5.056,0.216-7.035L77.246,27.668z"/></g><g><path fill="#CCC662" d="M22.755,73.102C24.664,75.081,26,74.45,26,71.7V29.069c0-2.75-1.408-3.454-3.406-1.563L3.43,45.749c-1.998,1.891-2.126,5.057-0.217,7.036L22.755,73.102z"/></g><g><path fill="#CCC662" d="M53.043,15.216c-2.75-0.05-3.409,1.5-1.464,3.445l30.146,30.145c1.944,1.945,3.597,1.287,3.673-1.462l0.731-26.531c0.076-2.749-2.112-5.039-4.861-5.088L53.043,15.216z"/></g><g><path fill="#CCC662" d="M46.958,85.555c2.75,0.049,3.408-1.501,1.463-3.445L18.276,51.964c-1.945-1.945-3.598-1.287-3.673,1.463l-0.731,26.53c-0.076,2.749,2.112,5.039,4.861,5.088L46.958,85.555z"/></g><g><path fill="#CCC662" d="M85.169,53.428c0.05-2.75-1.501-3.409-3.445-1.464L51.578,82.109c-1.944,1.944-1.286,3.597,1.463,3.673l26.531,0.731c2.749,0.076,5.038-2.112,5.088-4.861L85.169,53.428z"/></g><g><path fill="#CCC662" d="M14.831,47.343c-0.05,2.75,1.5,3.408,3.445,1.463l30.145-30.145c1.945-1.945,1.287-3.598-1.462-3.673l-26.531-0.732c-2.749-0.076-5.039,2.112-5.088,4.861L14.831,47.343z"/></g><circle fill="#FFFFAD" cx="50" cy="49.879" r="35.807"/></symbol></defs></svg>